<svg width="127" height="127" viewBox="0 0 127 127" fill="none" xmlns="http://www.w3.org/2000/svg">
<g filter="url(#filter0_d_1791_747)">
<circle cx="59.4311" cy="59.4311" r="41.4311" fill="#FB634F"/>
</g>
<path d="M59.4302 80.6874C62.4512 80.6874 65.3415 80.1215 68.1011 78.9896C70.8607 77.8577 73.2354 76.3346 75.2252 74.4201C77.215 72.5057 78.7981 70.221 79.9746 67.5659C81.151 64.9109 81.7393 62.1301 81.7393 59.2235C81.7393 56.3169 81.151 53.5361 79.9746 50.881C78.7981 48.226 77.215 45.9413 75.2252 44.0268C73.2354 42.1124 70.8607 40.5892 68.1011 39.4574C65.3415 38.3255 62.4512 37.7595 59.4302 37.7595C56.4092 37.7595 53.5189 38.3255 50.7593 39.4574C47.9998 40.5892 45.6251 42.1124 43.6353 44.0268C41.6455 45.9413 40.0623 48.226 38.8859 50.881C37.7094 53.5361 37.1212 56.3169 37.1212 59.2235C37.1212 62.1301 37.7094 64.9109 38.8859 67.5659C40.0623 70.221 41.6455 72.5057 43.6353 74.4201C45.6251 76.3346 47.9998 77.8577 50.7593 78.9896C53.5189 80.1215 56.4092 80.6874 59.4302 80.6874ZM56.6416 76.4533C52.7491 75.8664 49.4086 74.2315 46.62 71.5485C43.8313 68.8655 42.132 65.6515 41.522 61.9065H47.23C47.7528 64.1703 48.8712 66.1196 50.5851 67.7546C52.2989 69.3895 54.3177 70.4725 56.6416 71.0035V76.4533ZM58.1554 57.997L51.5436 56.5405C51.9794 55.3946 52.6402 54.3955 53.5262 53.5431C54.4122 52.6907 55.4506 52.0549 56.6416 51.6356L58.1554 57.997ZM51.5436 61.9065L58.1554 61.0632L56.6416 66.7694C55.4506 66.3781 54.4122 65.7493 53.5262 64.8829C52.6402 64.0165 51.9794 63.0244 51.5436 61.9065ZM61.0237 61.0632L67.3168 61.9065C66.8811 63.0244 66.2203 64.0165 65.3343 64.8829C64.4483 65.7493 63.4098 66.3781 62.2189 66.7694L61.0237 61.0632ZM62.2189 76.4533V71.0035C64.5718 70.4725 66.5979 69.3895 68.2972 67.7546C69.9965 66.1196 71.1076 64.1703 71.6305 61.9065H77.3385C76.7284 65.6515 75.0291 68.8655 72.2405 71.5485C69.4519 74.2315 66.1113 75.8664 62.2189 76.4533ZM62.2189 41.9936C66.1113 42.5805 69.4519 44.2155 72.2405 46.8985C75.0291 49.5815 76.7284 52.7955 77.3385 56.5405H71.6305C71.1076 54.2767 69.9965 52.3204 68.2972 50.6714C66.5979 49.0225 64.5718 47.9465 62.2189 47.4435V41.9936ZM67.3168 56.5405L61.0237 57.997L62.2189 51.6356C63.4098 52.0549 64.4483 52.6907 65.3343 53.5431C66.2203 54.3955 66.8811 55.3946 67.3168 56.5405ZM56.6416 41.9936V47.4435C54.3177 47.9465 52.2989 49.0225 50.5851 50.6714C48.8712 52.3204 47.7528 54.2767 47.23 56.5405H41.522C42.132 52.7955 43.8313 49.5815 46.62 46.8985C49.4086 44.2155 52.7491 42.5805 56.6416 41.9936Z" fill="black"/>
<defs>
<filter id="filter0_d_1791_747" x="0" y="0" width="126.862" height="126.862" filterUnits="userSpaceOnUse" color-interpolation-filters="sRGB">
<feFlood flood-opacity="0" result="BackgroundImageFix"/>
<feColorMatrix in="SourceAlpha" type="matrix" values="0 0 0 0 0 0 0 0 0 0 0 0 0 0 0 0 0 0 127 0" result="hardAlpha"/>
<feMorphology radius="3" operator="erode" in="SourceAlpha" result="effect1_dropShadow_1791_747"/>
<feOffset dx="4" dy="4"/>
<feGaussianBlur stdDeviation="12.5"/>
<feComposite in2="hardAlpha" operator="out"/>
<feColorMatrix type="matrix" values="0 0 0 0 0 0 0 0 0 0 0 0 0 0 0 0 0 0 0.3 0"/>
<feBlend mode="normal" in2="BackgroundImageFix" result="effect1_dropShadow_1791_747"/>
<feBlend mode="normal" in="SourceGraphic" in2="effect1_dropShadow_1791_747" result="shape"/>
</filter>
</defs>
</svg>
