<svg width="89" height="89" viewBox="0 0 89 89" fill="none" xmlns="http://www.w3.org/2000/svg">
<g filter="url(#filter0_d_1791_424)">
<circle cx="40.1128" cy="40.4644" r="22.1128" fill="#9DDCFA"/>
</g>
<path d="M34.353 30.0333C35.368 29.2937 36.6071 28.8948 37.8804 28.8978C38.2376 28.8978 38.5219 29.0767 38.6871 29.1999C38.8716 29.3402 39.0443 29.5192 39.1991 29.6982C39.3088 29.8265 39.3688 29.9875 39.3688 30.1536L39.3688 35.3416L37.7539 35.3416C37.5783 34.8639 37.2329 34.4613 36.7787 34.2049C36.3244 33.9485 35.7906 33.8549 35.2715 33.9406C34.7524 34.0263 34.2816 34.2857 33.9421 34.6731C33.6027 35.0605 33.4165 35.5509 33.4165 36.0576C33.4165 36.5643 33.6027 37.0547 33.9421 37.4421C34.2816 37.8295 34.7524 38.0889 35.2715 38.1746C35.7906 38.2603 36.3244 38.1667 36.7787 37.9103C37.2329 37.6539 37.5783 37.2513 37.7539 36.7736L39.3688 36.7736L39.3688 50.2556C39.3688 50.3616 39.3444 50.4663 39.2973 50.5621C39.2502 50.658 39.1816 50.7425 39.0964 50.8098C38.4088 51.351 37.489 51.8093 36.392 51.8093C34.6268 51.8093 33.3126 50.953 32.4628 49.9291C31.8522 49.1996 31.434 48.3389 31.2438 47.4203C30.6655 47.2719 30.1294 47.0003 29.6751 46.6255C28.8535 45.9482 28.2061 44.8499 28.2061 43.2174C28.2061 42.4198 28.2611 41.6996 28.3847 41.0695L33.0432 41.0695C33.9898 41.0695 34.7697 41.7497 34.8888 42.6289C34.3938 42.8012 33.9781 43.1363 33.715 43.5749C33.4518 44.0135 33.3582 44.5275 33.4507 45.026C33.5432 45.5246 33.8158 45.9757 34.2204 46.2996C34.625 46.6236 35.1355 46.7996 35.6619 46.7966C36.1882 46.7936 36.6966 46.6117 37.0971 46.2831C37.4976 45.9545 37.7646 45.5003 37.8509 45.0007C37.9371 44.5012 37.8372 43.9883 37.5686 43.5528C37.3001 43.1172 36.8802 42.787 36.3831 42.6203C36.3204 41.8094 35.9413 41.0513 35.3218 40.4981C34.7024 39.9449 33.8884 39.6375 33.0432 39.6375L28.8624 39.6375C29.0901 39.2108 29.3953 38.8499 29.7926 38.5936C29.8932 38.5296 29.9987 38.4731 30.1082 38.4246C29.6855 37.2332 29.7956 35.8385 30.2034 34.7431C30.4639 34.0385 30.8777 33.3727 31.4462 32.9287C31.8213 32.6352 32.2678 32.4419 32.756 32.4046C32.9703 31.4266 33.5731 30.6175 34.3545 30.0333L34.353 30.0333ZM40.8571 46.7974L41.9734 46.7974C42.8615 46.7974 43.7133 46.4579 44.3414 45.8537C44.9694 45.2495 45.3222 44.43 45.3222 43.5754L45.3222 40.9478C45.8187 40.7789 46.2372 40.4465 46.5037 40.0095C46.7702 39.5724 46.8675 39.0588 46.7784 38.5594C46.6894 38.06 46.4197 37.607 46.017 37.2804C45.6144 36.9538 45.1047 36.7747 44.578 36.7747C44.0514 36.7747 43.5417 36.9538 43.139 37.2804C42.7364 37.607 42.4667 38.06 42.3776 38.5594C42.2886 39.0588 42.3859 39.5724 42.6524 40.0095C42.9188 40.4465 43.3373 40.7789 43.8338 40.9478L43.8338 43.5754C43.8338 44.5635 43.0004 45.3654 41.9734 45.3654L40.8571 45.3654L40.8571 30.1536C40.8571 29.9875 40.917 29.8265 41.0268 29.6982C41.1801 29.5192 41.3542 29.3402 41.5388 29.1999C41.7025 29.0767 41.9868 28.8978 42.3455 28.8978C43.6187 28.8948 44.8579 29.2937 45.8729 30.0333C46.6543 30.6175 47.2571 31.4266 47.4699 32.4046C47.9581 32.4404 48.4046 32.6352 48.7797 32.9287C49.3482 33.3727 49.762 34.0385 50.0224 34.7431C50.4303 35.8385 50.5404 37.2347 50.1177 38.4232C50.2249 38.4719 50.3305 38.5292 50.4332 38.5951C50.8425 38.8571 51.1536 39.2323 51.3828 39.6748C51.8338 40.5411 52.0198 41.7497 52.0198 43.2174C52.0198 44.8513 51.3724 45.9482 50.5508 46.6255C50.0965 47.0003 49.5603 47.2719 48.9821 47.4203C48.8332 48.2193 48.4165 49.1444 47.7631 49.9291C46.9147 50.953 45.599 51.8093 43.8338 51.8093C42.7384 51.8093 41.8171 51.351 41.131 50.8098C41.0455 50.7427 40.9766 50.6582 40.9292 50.5623C40.8819 50.4665 40.8572 50.3617 40.8571 50.2556L40.8571 46.7974ZM35.6479 35.3416C35.4505 35.3416 35.2612 35.417 35.1216 35.5513C34.9821 35.6856 34.9037 35.8677 34.9037 36.0576C34.9037 36.2475 34.9821 36.4296 35.1216 36.5639C35.2612 36.6982 35.4505 36.7736 35.6479 36.7736C35.8452 36.7736 36.0345 36.6982 36.1741 36.5639C36.3136 36.4296 36.392 36.2475 36.392 36.0576C36.392 35.8677 36.3136 35.6856 36.1741 35.5513C36.0345 35.417 35.8452 35.3416 35.6479 35.3416ZM35.6479 43.9334C35.4505 43.9334 35.2612 44.0089 35.1216 44.1431C34.9821 44.2774 34.9037 44.4595 34.9037 44.6494C34.9037 44.8393 34.9821 45.0214 35.1216 45.1557C35.2612 45.29 35.4505 45.3654 35.6479 45.3654C35.8452 45.3654 36.0345 45.29 36.1741 45.1557C36.3136 45.0214 36.392 44.8393 36.392 44.6494C36.392 44.4595 36.3136 44.2774 36.1741 44.1431C36.0345 44.0089 35.8452 43.9334 35.6479 43.9334ZM44.578 39.6375C44.7754 39.6375 44.9647 39.5621 45.1042 39.4278C45.2438 39.2935 45.3222 39.1114 45.3222 38.9215C45.3222 38.7316 45.2438 38.5495 45.1042 38.4153C44.9647 38.281 44.7754 38.2056 44.578 38.2056C44.3806 38.2056 44.1914 38.281 44.0518 38.4153C43.9122 38.5495 43.8338 38.7316 43.8338 38.9215C43.8338 39.1114 43.9122 39.2935 44.0518 39.4278C44.1914 39.5621 44.3806 39.6375 44.578 39.6375Z" fill="black"/>
<defs>
<filter id="filter0_d_1791_424" x="0" y="0.351624" width="88.2256" height="88.2256" filterUnits="userSpaceOnUse" color-interpolation-filters="sRGB">
<feFlood flood-opacity="0" result="BackgroundImageFix"/>
<feColorMatrix in="SourceAlpha" type="matrix" values="0 0 0 0 0 0 0 0 0 0 0 0 0 0 0 0 0 0 127 0" result="hardAlpha"/>
<feMorphology radius="3" operator="erode" in="SourceAlpha" result="effect1_dropShadow_1791_424"/>
<feOffset dx="4" dy="4"/>
<feGaussianBlur stdDeviation="12.5"/>
<feComposite in2="hardAlpha" operator="out"/>
<feColorMatrix type="matrix" values="0 0 0 0 0 0 0 0 0 0 0 0 0 0 0 0 0 0 0.3 0"/>
<feBlend mode="normal" in2="BackgroundImageFix" result="effect1_dropShadow_1791_424"/>
<feBlend mode="normal" in="SourceGraphic" in2="effect1_dropShadow_1791_424" result="shape"/>
</filter>
</defs>
</svg>
