<svg width="89" height="89" viewBox="0 0 89 89" fill="none" xmlns="http://www.w3.org/2000/svg">
<g filter="url(#filter0_d_1791_445)">
<circle cx="40.1128" cy="40.4643" r="22.1128" fill="#F31F46"/>
</g>
<path d="M46.0664 46.8599H44.578V48.3001C44.578 49.0952 44.2873 49.774 43.7059 50.3365C43.1245 50.8991 42.423 51.1804 41.6013 51.1804H40.1129C39.2912 51.1804 38.5897 50.8991 38.0083 50.3365C37.4269 49.774 37.1362 49.0952 37.1362 48.3001V46.8599H33.4153C31.9735 46.8599 30.7448 46.3686 29.7293 45.386C28.7138 44.4034 28.2061 43.2145 28.2061 41.8194C28.2061 40.9643 28.4154 40.1692 28.834 39.4341C29.2526 38.699 29.8184 38.099 30.5316 37.6339C31.0587 38.669 31.8068 39.5429 32.7758 40.2555C33.7448 40.968 34.8262 41.4368 36.0199 41.6619C34.9967 41.0918 34.1828 40.3117 33.5781 39.3216C32.9735 38.3315 32.6711 37.2439 32.6711 36.0588C32.6711 34.2736 33.3262 32.7472 34.6362 31.4795C35.9463 30.2119 37.5238 29.5781 39.3688 29.5781C40.7331 29.5781 41.9695 29.9381 43.078 30.6582C44.1865 31.3783 44.9966 32.3234 45.5082 33.4935C44.454 33.8235 43.5393 34.3786 42.7641 35.1587C41.9889 35.9387 41.4463 36.8463 41.1362 37.8815C41.6788 37.1014 42.3842 36.4826 43.2524 36.025C44.1207 35.5675 45.0586 35.3387 46.0664 35.3387C47.7098 35.3387 49.1129 35.9012 50.2756 37.0264C51.4384 38.1515 52.0198 39.5091 52.0198 41.0993C52.0198 42.6895 51.4384 44.0471 50.2756 45.1722C49.1129 46.2974 47.7098 46.8599 46.0664 46.8599ZM45.9268 44.5647L41.299 39.8617C41.1749 39.7267 41.0277 39.6591 40.8571 39.6591C40.6866 39.6591 40.5393 39.7267 40.4153 39.8617L35.7874 44.5647C35.6634 44.6997 35.6246 44.876 35.6711 45.0935C35.7176 45.311 35.8029 45.4198 35.9269 45.4198H38.6246V48.3001C38.6246 48.7051 38.768 49.0464 39.0548 49.3239C39.3416 49.6015 39.6943 49.7402 40.1129 49.7402H41.6013C42.0199 49.7402 42.3726 49.6015 42.6594 49.3239C42.9462 49.0464 43.0897 48.7051 43.0897 48.3001V45.4198H45.7873C45.9113 45.4198 45.9966 45.311 46.0431 45.0935C46.0896 44.876 46.0509 44.6997 45.9268 44.5647Z" fill="black"/>
<defs>
<filter id="filter0_d_1791_445" x="0" y="0.351562" width="88.2256" height="88.2256" filterUnits="userSpaceOnUse" color-interpolation-filters="sRGB">
<feFlood flood-opacity="0" result="BackgroundImageFix"/>
<feColorMatrix in="SourceAlpha" type="matrix" values="0 0 0 0 0 0 0 0 0 0 0 0 0 0 0 0 0 0 127 0" result="hardAlpha"/>
<feMorphology radius="3" operator="erode" in="SourceAlpha" result="effect1_dropShadow_1791_445"/>
<feOffset dx="4" dy="4"/>
<feGaussianBlur stdDeviation="12.5"/>
<feComposite in2="hardAlpha" operator="out"/>
<feColorMatrix type="matrix" values="0 0 0 0 0 0 0 0 0 0 0 0 0 0 0 0 0 0 0.3 0"/>
<feBlend mode="normal" in2="BackgroundImageFix" result="effect1_dropShadow_1791_445"/>
<feBlend mode="normal" in="SourceGraphic" in2="effect1_dropShadow_1791_445" result="shape"/>
</filter>
</defs>
</svg>
