<svg width="89" height="89" viewBox="0 0 89 89" fill="none" xmlns="http://www.w3.org/2000/svg">
<g filter="url(#filter0_d_1791_437)">
<circle cx="40.1128" cy="40.4643" r="22.1128" fill="#F3CC1F"/>
</g>
<path d="M42.5301 40.6459C42.2976 40.8696 41.9206 40.8696 41.6881 40.6459L41.2672 40.241C41.0347 40.0173 41.0347 39.6546 41.2672 39.4309L42.5963 38.1525L41.2676 36.8737C41.0351 36.65 41.0351 36.2874 41.2676 36.0636L41.6884 35.6587C41.921 35.435 42.2979 35.435 42.5305 35.6587L44.7013 37.7472C44.9338 37.971 44.9338 38.3336 44.7013 38.5574L42.5301 40.6459ZM38.9577 40.2414L38.5368 40.6463C38.3043 40.87 37.9274 40.87 37.6948 40.6463L35.524 38.5577C35.2915 38.334 35.2915 37.9713 35.524 37.7476L37.6948 35.6591C37.9274 35.4353 38.3043 35.4353 38.5368 35.6591L38.9577 36.064C39.1902 36.2877 39.1902 36.6504 38.9577 36.8741L37.6289 38.1525L38.9577 39.4312C39.1902 39.655 39.1902 40.0176 38.9577 40.2414ZM28.8011 46.1715H37.8228C37.8503 46.8807 38.3701 47.3171 39.041 47.3171H41.3033C41.9988 47.3171 42.532 46.6917 42.5227 46.1715H51.4242C51.7516 46.1715 52.0195 46.4293 52.0195 46.7443V47.3171C52.0195 48.5772 50.9479 49.6082 49.6382 49.6082H30.5871C29.2774 49.6082 28.2058 48.5772 28.2058 47.3171V46.7443C28.2058 46.4293 28.4737 46.1715 28.8011 46.1715ZM30.5871 32.9974C30.5871 32.0523 31.3909 31.2791 32.3732 31.2791H47.8521C48.8344 31.2791 49.6382 32.0523 49.6382 32.9974V45.0259H30.5871V32.9974ZM32.9685 42.7348H47.2568V33.5702H32.9685V42.7348Z" fill="black"/>
<defs>
<filter id="filter0_d_1791_437" x="0" y="0.351562" width="88.2256" height="88.2256" filterUnits="userSpaceOnUse" color-interpolation-filters="sRGB">
<feFlood flood-opacity="0" result="BackgroundImageFix"/>
<feColorMatrix in="SourceAlpha" type="matrix" values="0 0 0 0 0 0 0 0 0 0 0 0 0 0 0 0 0 0 127 0" result="hardAlpha"/>
<feMorphology radius="3" operator="erode" in="SourceAlpha" result="effect1_dropShadow_1791_437"/>
<feOffset dx="4" dy="4"/>
<feGaussianBlur stdDeviation="12.5"/>
<feComposite in2="hardAlpha" operator="out"/>
<feColorMatrix type="matrix" values="0 0 0 0 0 0 0 0 0 0 0 0 0 0 0 0 0 0 0.3 0"/>
<feBlend mode="normal" in2="BackgroundImageFix" result="effect1_dropShadow_1791_437"/>
<feBlend mode="normal" in="SourceGraphic" in2="effect1_dropShadow_1791_437" result="shape"/>
</filter>
</defs>
</svg>
