<svg width="22" height="21" viewBox="0 0 22 21" fill="none" xmlns="http://www.w3.org/2000/svg">
<path fill-rule="evenodd" clip-rule="evenodd" d="M10.8842 1.74655C5.81254 1.74655 1.70662 5.96872 1.70662 11.1683C1.70662 14.9862 3.9204 18.2716 7.10663 19.7494C7.44 19.9044 7.76582 19.8429 8.02045 19.6455C8.16127 19.5322 8.27478 19.3867 8.35209 19.2204C8.4294 19.0542 8.46841 18.8716 8.46606 18.6872L8.46606 18.1937L7.32943 18.0344C7.32102 18.0332 7.31264 18.0318 7.3043 18.0301C6.67778 17.9037 6.25479 17.676 5.94488 17.3479C5.68439 17.0717 5.52524 16.741 5.39039 16.4605L5.34348 16.3627C5.21885 16.094 5.08274 15.8311 4.93557 15.5749C4.8225 15.3896 4.73455 15.2944 4.64744 15.2346C4.42631 15.0831 4.21356 14.826 4.21356 14.5048C4.21281 14.4124 4.23195 14.3209 4.26962 14.2371C4.30729 14.1532 4.36253 14.0791 4.43134 14.02C4.56121 13.9137 4.72307 13.858 4.88867 13.8625C5.07461 13.8625 5.24967 13.9213 5.39541 13.9889C5.54451 14.0581 5.69276 14.1499 5.83097 14.2451C6.16768 14.4771 6.49937 14.7516 6.77997 15.0901C7.07229 15.4416 7.27918 15.6649 7.59076 15.7108C7.84707 15.7489 8.1084 15.7498 8.31194 15.7402C8.34022 15.5737 8.38688 15.411 8.45098 15.2554C8.20239 15.1955 7.95717 15.1215 7.7164 15.0338C7.16861 14.8329 6.558 14.5204 6.14758 14.0469C5.69695 13.5257 5.41803 13.0608 5.26224 12.5171C5.11063 11.9873 5.0855 11.4133 5.0855 10.7069C5.0855 9.62471 5.53864 8.71309 5.87871 8.22915C5.74806 7.80546 5.65415 7.37059 5.59811 6.92968C5.561 6.65164 5.56128 6.36962 5.59895 6.09165C5.64083 5.838 5.74553 5.52633 6.0211 5.33847C6.28662 5.1558 6.59821 5.16359 6.84111 5.21034C7.09323 5.25969 7.3554 5.3679 7.59663 5.4917C7.98946 5.69255 8.37978 5.96093 8.67211 6.18862C9.17634 6.03538 10.0684 5.838 10.875 5.81982L10.8934 5.81982C11.7009 5.838 12.5527 6.03538 13.0444 6.18775C13.3375 5.96093 13.727 5.69169 14.119 5.4917C14.3602 5.3679 14.6216 5.25969 14.8745 5.21034C15.1174 5.16359 15.429 5.1558 15.6954 5.3376C15.9701 5.52633 16.0757 5.838 16.1167 6.09165C16.1594 6.3557 16.1494 6.65092 16.1167 6.92968C16.0609 7.37055 15.9673 7.80542 15.8369 8.22915C16.177 8.71396 16.6301 9.62557 16.6301 10.7069C16.6301 11.4133 16.605 11.9873 16.4542 12.5162C16.2976 13.0617 16.0187 13.5257 15.5681 14.0469C15.1576 14.5204 14.547 14.8329 13.9992 15.0338C13.7085 15.1394 13.4113 15.2253 13.1097 15.2909C13.2127 15.613 13.2496 15.8736 13.2496 16.0233L13.2496 18.6984C13.2496 19.1053 13.433 19.4525 13.6935 19.6551C13.9465 19.8533 14.2715 19.9148 14.6048 19.7642C17.8212 18.2993 20.061 15.0052 20.061 11.1674C20.061 5.96872 15.9567 1.74655 10.8842 1.74655ZM8.77011 16.6068C8.55233 16.6389 8.76927 16.6068 8.76927 16.6068L8.76675 16.6068L8.76005 16.6086L8.73576 16.612C8.61135 16.6271 8.48648 16.6378 8.36136 16.6441C8.12515 16.6553 7.801 16.6562 7.46847 16.6068C6.80593 16.5099 6.40305 16.0251 6.14255 15.7099L6.11743 15.6805C6.03226 15.5784 5.94077 15.4821 5.84353 15.3922C5.9298 15.5567 6.01943 15.7402 6.11575 15.9376L6.12413 15.9549L6.16684 16.045C6.31342 16.3462 6.40975 16.5471 6.56973 16.715C6.72552 16.8795 6.96843 17.0388 7.45926 17.1393L8.96192 17.3496C9.06687 17.3643 9.16309 17.4179 9.23272 17.5003C9.30236 17.5828 9.34066 17.6886 9.34051 17.7981L9.34051 18.6872C9.34051 19.3798 9.02641 19.997 8.54479 20.371C8.29193 20.5707 7.99112 20.6953 7.6748 20.7313C7.35849 20.7673 7.03866 20.7134 6.74981 20.5753C3.26372 18.959 0.833008 15.3602 0.833008 11.1683C0.833008 5.4614 5.33678 0.841858 10.8842 0.841858C16.4316 0.841858 20.9354 5.4614 20.9354 11.1683C20.9354 15.3818 18.4737 18.9902 14.9575 20.5927C14.6684 20.7281 14.3491 20.7797 14.0338 20.7421C13.7185 20.7044 13.4191 20.5788 13.1675 20.3788C12.9188 20.1809 12.7178 19.9261 12.5803 19.6344C12.4428 19.3427 12.3726 19.022 12.3751 18.6976L12.3751 16.0225C12.3751 15.9619 12.3341 15.6121 12.1054 15.142C12.0739 15.0768 12.058 15.0047 12.0591 14.9319C12.0602 14.859 12.0783 14.7874 12.1118 14.7233C12.1453 14.6592 12.1933 14.6044 12.2517 14.5635C12.3101 14.5226 12.3771 14.4968 12.4472 14.4884C12.7345 14.4555 13.2186 14.3594 13.7069 14.1802C14.2045 13.9984 14.6509 13.7491 14.9164 13.4426C15.3109 12.9872 15.5078 12.6375 15.6158 12.2591C15.728 11.867 15.7565 11.4107 15.7565 10.7069C15.7565 9.71907 15.254 8.88883 15.0228 8.62132C14.9703 8.56087 14.9345 8.48693 14.9192 8.40727C14.9039 8.32761 14.9096 8.24515 14.9357 8.16855C15.0529 7.82745 15.1953 7.29675 15.2498 6.8232C15.2766 6.58512 15.2783 6.386 15.2548 6.24229C15.2496 6.18975 15.2342 6.13882 15.2096 6.09252C15.1519 6.08221 15.0928 6.08486 15.0362 6.10031C14.8938 6.12802 14.712 6.19727 14.506 6.30289C14.0956 6.5124 13.6684 6.82233 13.4037 7.04396C13.3453 7.09291 13.2757 7.12541 13.2016 7.1383C13.1275 7.1512 13.0514 7.14405 12.9807 7.11755C12.3025 6.88826 11.5971 6.7563 10.8842 6.72537C10.0407 6.74615 9.06745 6.99375 8.73493 7.11755C8.66427 7.14405 8.58818 7.1512 8.51406 7.1383C8.43994 7.12541 8.37031 7.09291 8.31194 7.04396C7.96964 6.75913 7.60033 6.51084 7.20966 6.30289C7.0419 6.21184 6.86339 6.14374 6.67862 6.10031C6.6223 6.08499 6.56346 6.08233 6.50607 6.09252C6.48145 6.13881 6.46607 6.18974 6.46084 6.24229C6.43739 6.386 6.43906 6.58512 6.46587 6.8232C6.52031 7.29675 6.66354 7.82745 6.77997 8.16855C6.83274 8.32438 6.80007 8.49752 6.69286 8.62132C6.46168 8.88883 5.95912 9.71907 5.95912 10.7069C5.95912 11.4098 5.9876 11.867 6.09984 12.2591C6.20872 12.6375 6.40472 12.9863 6.7984 13.4426C7.06475 13.7491 7.51036 13.9984 8.00873 14.1802C8.41645 14.3293 8.83852 14.4326 9.26764 14.4884C9.35593 14.4982 9.43924 14.5355 9.50649 14.5955C9.57374 14.6554 9.62174 14.7351 9.64411 14.8239C9.66648 14.9127 9.66215 15.0064 9.63171 15.0927C9.60127 15.1789 9.54615 15.2535 9.47369 15.3065C9.33549 15.4087 9.24419 15.5922 9.19309 15.8043C9.16671 15.9135 9.151 16.0252 9.14619 16.1376L9.14619 16.1541C9.14726 16.2638 9.10971 16.3703 9.04052 16.4535C8.97134 16.5368 8.87524 16.5913 8.77011 16.6068Z" fill="white" stroke="white" stroke-width="0.5"/>
</svg>
