<svg width="21" height="21" viewBox="0 0 21 21" fill="none" xmlns="http://www.w3.org/2000/svg">
<path fill-rule="evenodd" clip-rule="evenodd" d="M6.01676 0.53109C7.10843 0.480834 7.4565 0.469666 10.2373 0.469666C13.0182 0.469666 13.3662 0.481764 14.457 0.53109C15.5477 0.580415 16.2922 0.75445 16.9437 1.00666C17.6259 1.26445 18.2448 1.66743 18.7567 2.18861C19.2778 2.69954 19.6799 3.31751 19.9367 4.00062C20.1899 4.65208 20.363 5.39662 20.4132 6.4855C20.4635 7.57903 20.4747 7.9271 20.4747 10.707C20.4747 13.4878 20.4626 13.8359 20.4132 14.9276C20.3639 16.0165 20.1899 16.761 19.9367 17.4125C19.6799 18.0956 19.2772 18.7146 18.7567 19.2263C18.2448 19.7475 17.6259 20.1495 16.9437 20.4064C16.2922 20.6595 15.5477 20.8327 14.4588 20.8829C13.3662 20.9332 13.0182 20.9443 10.2373 20.9443C7.4565 20.9443 7.10843 20.9322 6.01676 20.8829C4.92788 20.8336 4.18335 20.6595 3.53188 20.4064C2.8487 20.1495 2.22971 19.7468 1.71801 19.2263C1.19719 18.7151 0.794151 18.0964 0.536994 17.4134C0.284784 16.7619 0.11168 16.0174 0.0614237 14.9285C0.0111677 13.835 -2.33319e-07 13.4869 -1.83492e-07 10.707C-1.33649e-07 7.92617 0.0120985 7.5781 0.0614239 6.48736C0.110749 5.39662 0.284784 4.65208 0.536995 4.00062C0.794531 3.31758 1.19788 2.6989 1.71894 2.18768C2.22991 1.66697 2.84828 1.26394 3.53095 1.00666C4.18242 0.75445 4.92695 0.581346 6.01583 0.53109L6.01676 0.53109ZM14.3741 2.37381C13.2946 2.32448 12.9707 2.31425 10.2373 2.31425C7.50397 2.31425 7.18009 2.32448 6.10052 2.37381C5.10191 2.41941 4.56027 2.586 4.19917 2.72653C3.72174 2.91267 3.38018 3.13323 3.02187 3.49154C2.68222 3.82197 2.42083 4.22424 2.25687 4.66883C2.11634 5.02993 1.94975 5.57158 1.90414 6.57019C1.85482 7.64976 1.84458 7.97363 1.84458 10.707C1.84458 13.4404 1.85482 13.7642 1.90414 14.8438C1.94975 15.8424 2.11634 16.3841 2.25687 16.7452C2.42066 17.1891 2.68218 17.5921 3.02187 17.9225C3.35226 18.2622 3.75524 18.5237 4.19917 18.6875C4.56027 18.828 5.10191 18.9946 6.10052 19.0402C7.18009 19.0895 7.50303 19.0998 10.2373 19.0998C12.9716 19.0998 13.2946 19.0895 14.3741 19.0402C15.3728 18.9946 15.9144 18.828 16.2755 18.6875C16.7529 18.5013 17.0945 18.2808 17.4528 17.9225C17.7925 17.5921 18.054 17.1891 18.2178 16.7452C18.3583 16.3841 18.5249 15.8424 18.5705 14.8438C18.6198 13.7642 18.6301 13.4404 18.6301 10.707C18.6301 7.97363 18.6198 7.64976 18.5705 6.57019C18.5249 5.57158 18.3583 5.02993 18.2178 4.66883C18.0317 4.1914 17.8111 3.84985 17.4528 3.49154C17.1223 3.15191 16.7201 2.89053 16.2755 2.72653C15.9144 2.586 15.3728 2.41941 14.3741 2.37381ZM8.92975 13.8629C9.66 14.1669 10.4731 14.2079 11.2303 13.979C11.9874 13.75 12.6416 13.2653 13.0811 12.6076C13.5206 11.95 13.7181 11.1601 13.6399 10.373C13.5617 9.58586 13.2127 8.85029 12.6524 8.29192C12.2953 7.93499 11.8634 7.66168 11.3879 7.49168C10.9125 7.32168 10.4053 7.25921 9.90275 7.30878C9.40026 7.35834 8.915 7.5187 8.48191 7.77831C8.04883 8.03792 7.67869 8.39033 7.39815 8.81016C7.11761 9.22999 6.93364 9.7068 6.85949 10.2063C6.78534 10.7057 6.82286 11.2154 6.96933 11.6986C7.11581 12.1819 7.3676 12.6266 7.70659 13.0008C8.04558 13.3751 8.46332 13.6695 8.92975 13.8629ZM6.51653 6.98619C7.00515 6.49757 7.58523 6.10997 8.22365 5.84553C8.86207 5.58109 9.54632 5.44499 10.2373 5.44499C10.9284 5.44499 11.6126 5.58109 12.251 5.84553C12.8894 6.10997 13.4695 6.49757 13.9581 6.98619C14.4468 7.47482 14.8344 8.0549 15.0988 8.69331C15.3632 9.33173 15.4993 10.016 15.4993 10.707C15.4993 11.398 15.3632 12.0823 15.0988 12.7207C14.8344 13.3591 14.4468 13.9392 13.9581 14.4278C12.9713 15.4146 11.6329 15.969 10.2373 15.969C8.84176 15.969 7.50335 15.4146 6.51653 14.4278C5.52971 13.441 4.97532 12.1026 4.97532 10.707C4.97532 9.31143 5.52971 7.97301 6.51653 6.98619ZM16.6664 6.22863C16.7875 6.11441 16.8844 5.97705 16.9514 5.8247C17.0185 5.67234 17.0543 5.50808 17.0567 5.34164C17.0591 5.1752 17.0282 5.00997 16.9656 4.85572C16.903 4.70147 16.8101 4.56135 16.6924 4.44365C16.5747 4.32595 16.4346 4.23306 16.2803 4.17048C16.1261 4.1079 15.9608 4.07691 15.7944 4.07933C15.628 4.08176 15.4637 4.11756 15.3114 4.1846C15.159 4.25165 15.0216 4.34859 14.9074 4.46967C14.6853 4.70516 14.5637 5.01795 14.5684 5.34164C14.5731 5.66533 14.7038 5.97445 14.9327 6.20336C15.1616 6.43227 15.4707 6.56295 15.7944 6.56767C16.1181 6.57239 16.4309 6.45077 16.6664 6.22863Z" fill="white"/>
</svg>
