<svg width="50" height="50" viewBox="0 0 50 50" fill="none" xmlns="http://www.w3.org/2000/svg">
<rect width="50" height="50" rx="25" fill="white" fill-opacity="0.05"/>
<rect x="0.5" y="0.5" width="49" height="49" rx="24.5" stroke="white" stroke-opacity="0.08"/>
<path fill-rule="evenodd" clip-rule="evenodd" d="M25 27.8438L25.1361 27.8439L25.4377 27.8447C27.9993 27.858 34 28.0845 34 31.935C34 35.5049 29.0716 35.982 25.2381 36L24.5623 35.9997C22.0007 35.9864 16 35.76 16 31.9105C16 28.2651 21.1358 27.8438 25 27.8438ZM25 29.511C20.1658 29.511 17.7139 30.319 17.7139 31.9105C17.7139 33.5176 20.1658 34.3334 25 34.3334C29.8342 34.3334 32.2861 33.5254 32.2861 31.935C32.2861 30.3256 29.8342 29.511 25 29.511ZM25 14C28.3511 14 31.0762 16.6518 31.0762 19.9105C31.0762 23.1692 28.3511 25.8211 25 25.8211H24.9646C23.3433 25.8155 21.8237 25.1964 20.6845 24.0806C19.5442 22.9636 18.9193 21.481 18.9249 19.9072C18.9249 16.6518 21.65 14 25 14ZM25 15.6671C22.596 15.6671 20.6388 17.571 20.6388 19.9105C20.6343 21.0431 21.0821 22.1045 21.8991 22.9058C22.7172 23.706 23.8072 24.1495 24.968 24.1539L25 24.9775V24.1539C27.4051 24.1539 29.3623 22.2501 29.3623 19.9105C29.3623 17.571 27.4051 15.6671 25 15.6671Z" fill="white" fill-opacity="0.9"/>
</svg>
