<svg width="275" height="25" viewBox="0 0 275 25" fill="none" xmlns="http://www.w3.org/2000/svg">
<path d="M10.908 5.40003C11.196 5.40003 11.43 5.49603 11.61 5.68803C11.79 5.88003 11.88 6.12003 11.88 6.40803V16.902C11.88 17.214 11.772 17.478 11.556 17.694C11.352 17.898 11.094 18 10.782 18C10.626 18 10.464 17.976 10.296 17.928C10.14 17.868 10.02 17.79 9.936 17.694L2.862 8.71203L3.33 8.42403V16.992C3.33 17.28 3.234 17.52 3.042 17.712C2.862 17.904 2.622 18 2.322 18C2.034 18 1.8 17.904 1.62 17.712C1.44 17.52 1.35 17.28 1.35 16.992V6.49803C1.35 6.18603 1.452 5.92803 1.656 5.72403C1.872 5.50803 2.136 5.40003 2.448 5.40003C2.616 5.40003 2.79 5.43603 2.97 5.50803C3.15 5.56803 3.282 5.66403 3.366 5.79603L10.224 14.544L9.918 14.76V6.40803C9.918 6.12003 10.008 5.88003 10.188 5.68803C10.368 5.49603 10.608 5.40003 10.908 5.40003ZM15.4143 5.40003H21.4443C21.7563 5.40003 22.0143 5.50203 22.2183 5.70603C22.4343 5.89803 22.5423 6.15003 22.5423 6.46203C22.5423 6.76203 22.4343 7.00803 22.2183 7.20003C22.0143 7.38003 21.7563 7.47003 21.4443 7.47003H16.4043L16.5663 7.16403V10.674L16.4223 10.53H20.6343C20.9463 10.53 21.2043 10.632 21.4083 10.836C21.6243 11.028 21.7323 11.28 21.7323 11.592C21.7323 11.892 21.6243 12.138 21.4083 12.33C21.2043 12.51 20.9463 12.6 20.6343 12.6H16.4763L16.5663 12.456V16.092L16.4223 15.93H21.4443C21.7563 15.93 22.0143 16.038 22.2183 16.254C22.4343 16.458 22.5423 16.698 22.5423 16.974C22.5423 17.274 22.4343 17.52 22.2183 17.712C22.0143 17.904 21.7563 18 21.4443 18H15.4143C15.1023 18 14.8383 17.898 14.6223 17.694C14.4183 17.478 14.3163 17.214 14.3163 16.902V6.49803C14.3163 6.18603 14.4183 5.92803 14.6223 5.72403C14.8383 5.50803 15.1023 5.40003 15.4143 5.40003ZM25.4451 5.40003H31.4751C31.7871 5.40003 32.0451 5.50203 32.2491 5.70603C32.4651 5.89803 32.5731 6.15003 32.5731 6.46203C32.5731 6.76203 32.4651 7.00803 32.2491 7.20003C32.0451 7.38003 31.7871 7.47003 31.4751 7.47003H26.4351L26.5971 7.16403V10.674L26.4531 10.53H30.6651C30.9771 10.53 31.2351 10.632 31.4391 10.836C31.6551 11.028 31.7631 11.28 31.7631 11.592C31.7631 11.892 31.6551 12.138 31.4391 12.33C31.2351 12.51 30.9771 12.6 30.6651 12.6H26.5071L26.5971 12.456V16.092L26.4531 15.93H31.4751C31.7871 15.93 32.0451 16.038 32.2491 16.254C32.4651 16.458 32.5731 16.698 32.5731 16.974C32.5731 17.274 32.4651 17.52 32.2491 17.712C32.0451 17.904 31.7871 18 31.4751 18H25.4451C25.1331 18 24.8691 17.898 24.6531 17.694C24.4491 17.478 24.3471 17.214 24.3471 16.902V6.49803C24.3471 6.18603 24.4491 5.92803 24.6531 5.72403C24.8691 5.50803 25.1331 5.40003 25.4451 5.40003ZM39.7779 5.40003C40.6419 5.40003 41.4099 5.56203 42.0819 5.88603C42.7539 6.21003 43.3179 6.66603 43.7739 7.25403C44.2419 7.83003 44.5899 8.50203 44.8179 9.27003C45.0579 10.026 45.1779 10.836 45.1779 11.7C45.1779 12.864 44.9679 13.926 44.5479 14.886C44.1279 15.834 43.5159 16.59 42.7119 17.154C41.9199 17.718 40.9419 18 39.7779 18H35.4759C35.1639 18 34.8999 17.898 34.6839 17.694C34.4799 17.478 34.3779 17.214 34.3779 16.902V6.49803C34.3779 6.18603 34.4799 5.92803 34.6839 5.72403C34.8999 5.50803 35.1639 5.40003 35.4759 5.40003H39.7779ZM39.5979 15.93C40.3539 15.93 40.9719 15.738 41.4519 15.354C41.9319 14.958 42.2799 14.442 42.4959 13.806C42.7239 13.158 42.8379 12.456 42.8379 11.7C42.8379 11.136 42.7719 10.602 42.6399 10.098C42.5199 9.58203 42.3279 9.13203 42.0639 8.74803C41.7999 8.35203 41.4639 8.04003 41.0559 7.81203C40.6479 7.58403 40.1619 7.47003 39.5979 7.47003H36.4479L36.6279 7.30803V16.128L36.5199 15.93H39.5979ZM56.376 8.22603L52.488 17.37C52.404 17.598 52.272 17.778 52.092 17.91C51.924 18.03 51.738 18.09 51.534 18.09C51.21 18.09 50.97 18 50.814 17.82C50.658 17.64 50.58 17.418 50.58 17.154C50.58 17.046 50.598 16.932 50.634 16.812L55.116 6.04803C55.212 5.80803 55.356 5.62203 55.548 5.49003C55.752 5.35803 55.968 5.30403 56.196 5.32803C56.412 5.32803 56.61 5.39403 56.79 5.52603C56.982 5.64603 57.12 5.82003 57.204 6.04803L61.632 16.596C61.692 16.752 61.722 16.896 61.722 17.028C61.722 17.352 61.614 17.61 61.398 17.802C61.194 17.994 60.966 18.09 60.714 18.09C60.498 18.09 60.3 18.024 60.12 17.892C59.952 17.76 59.82 17.58 59.724 17.352L55.854 8.33403L56.376 8.22603ZM53.046 15.174L54.036 13.104H58.896L59.238 15.174H53.046ZM81.917 5.34603C82.193 5.34603 82.457 5.45403 82.709 5.67003C82.961 5.87403 83.087 6.15603 83.087 6.51603C83.087 6.62403 83.069 6.74403 83.033 6.87603L79.487 17.316C79.415 17.532 79.283 17.7 79.091 17.82C78.911 17.928 78.719 17.988 78.515 18C78.311 18 78.107 17.94 77.903 17.82C77.711 17.7 77.561 17.526 77.453 17.298L74.789 11.25L74.951 11.358L72.323 17.298C72.215 17.526 72.059 17.7 71.855 17.82C71.663 17.94 71.465 18 71.261 18C71.069 17.988 70.877 17.928 70.685 17.82C70.493 17.7 70.361 17.532 70.289 17.316L66.743 6.87603C66.707 6.74403 66.689 6.62403 66.689 6.51603C66.689 6.15603 66.815 5.87403 67.067 5.67003C67.331 5.45403 67.601 5.34603 67.877 5.34603C68.105 5.34603 68.315 5.40603 68.507 5.52603C68.711 5.64603 68.849 5.82003 68.921 6.04803L71.783 14.724L71.387 14.706L73.943 8.56803C74.039 8.35203 74.177 8.18403 74.357 8.06403C74.537 7.93203 74.741 7.87203 74.969 7.88403C75.197 7.87203 75.401 7.93203 75.581 8.06403C75.761 8.18403 75.893 8.35203 75.977 8.56803L78.317 14.436L78.029 14.616L80.855 6.04803C80.927 5.82003 81.065 5.64603 81.269 5.52603C81.473 5.40603 81.689 5.34603 81.917 5.34603ZM85.5595 5.40003H91.5895C91.9015 5.40003 92.1595 5.50203 92.3635 5.70603C92.5795 5.89803 92.6875 6.15003 92.6875 6.46203C92.6875 6.76203 92.5795 7.00803 92.3635 7.20003C92.1595 7.38003 91.9015 7.47003 91.5895 7.47003H86.5495L86.7115 7.16403V10.674L86.5675 10.53H90.7795C91.0915 10.53 91.3495 10.632 91.5535 10.836C91.7695 11.028 91.8775 11.28 91.8775 11.592C91.8775 11.892 91.7695 12.138 91.5535 12.33C91.3495 12.51 91.0915 12.6 90.7795 12.6H86.6215L86.7115 12.456V16.092L86.5675 15.93H91.5895C91.9015 15.93 92.1595 16.038 92.3635 16.254C92.5795 16.458 92.6875 16.698 92.6875 16.974C92.6875 17.274 92.5795 17.52 92.3635 17.712C92.1595 17.904 91.9015 18 91.5895 18H85.5595C85.2475 18 84.9835 17.898 84.7675 17.694C84.5635 17.478 84.4615 17.214 84.4615 16.902V6.49803C84.4615 6.18603 84.5635 5.92803 84.7675 5.72403C84.9835 5.50803 85.2475 5.40003 85.5595 5.40003ZM100.126 5.40003C101.278 5.40003 102.136 5.67003 102.7 6.21003C103.264 6.75003 103.546 7.54803 103.546 8.60403C103.546 9.16803 103.408 9.66603 103.132 10.098C102.856 10.518 102.448 10.848 101.908 11.088C101.368 11.316 100.702 11.43 99.9103 11.43L99.9823 10.62C100.354 10.62 100.78 10.674 101.26 10.782C101.74 10.878 102.202 11.058 102.646 11.322C103.102 11.574 103.474 11.934 103.762 12.402C104.062 12.858 104.212 13.446 104.212 14.166C104.212 14.958 104.08 15.606 103.816 16.11C103.564 16.614 103.228 17.004 102.808 17.28C102.388 17.556 101.938 17.748 101.458 17.856C100.978 17.952 100.516 18 100.072 18H95.5903C95.2783 18 95.0143 17.898 94.7983 17.694C94.5943 17.478 94.4923 17.214 94.4923 16.902V6.49803C94.4923 6.18603 94.5943 5.92803 94.7983 5.72403C95.0143 5.50803 95.2783 5.40003 95.5903 5.40003H100.126ZM99.8023 7.52403H96.5983L96.8323 7.23603V10.494L96.6163 10.332H99.8563C100.204 10.332 100.516 10.218 100.792 9.99003C101.068 9.76203 101.206 9.43203 101.206 9.00003C101.206 8.48403 101.074 8.11203 100.81 7.88403C100.558 7.64403 100.222 7.52403 99.8023 7.52403ZM99.9463 12.456H96.6703L96.8323 12.312V16.11L96.6523 15.93H100.072C100.624 15.93 101.062 15.786 101.386 15.498C101.71 15.198 101.872 14.754 101.872 14.166C101.872 13.626 101.764 13.236 101.548 12.996C101.332 12.756 101.074 12.606 100.774 12.546C100.474 12.486 100.198 12.456 99.9463 12.456ZM110.067 18.18C109.227 18.18 108.471 18.078 107.799 17.874C107.127 17.658 106.485 17.286 105.873 16.758C105.717 16.626 105.597 16.476 105.513 16.308C105.429 16.14 105.387 15.972 105.387 15.804C105.387 15.528 105.483 15.288 105.675 15.084C105.879 14.868 106.131 14.76 106.431 14.76C106.659 14.76 106.863 14.832 107.043 14.976C107.499 15.348 107.949 15.63 108.393 15.822C108.849 16.014 109.407 16.11 110.067 16.11C110.511 16.11 110.919 16.044 111.291 15.912C111.663 15.768 111.963 15.582 112.191 15.354C112.419 15.114 112.533 14.844 112.533 14.544C112.533 14.184 112.425 13.878 112.209 13.626C111.993 13.374 111.663 13.164 111.219 12.996C110.775 12.816 110.211 12.678 109.527 12.582C108.879 12.486 108.309 12.342 107.817 12.15C107.325 11.946 106.911 11.694 106.575 11.394C106.251 11.082 106.005 10.722 105.837 10.314C105.669 9.89403 105.585 9.42603 105.585 8.91003C105.585 8.13003 105.783 7.46403 106.179 6.91203C106.587 6.36003 107.133 5.94003 107.817 5.65203C108.501 5.36403 109.257 5.22003 110.085 5.22003C110.865 5.22003 111.585 5.34003 112.245 5.58003C112.917 5.80803 113.463 6.10203 113.883 6.46203C114.231 6.73803 114.405 7.05603 114.405 7.41603C114.405 7.68003 114.303 7.92003 114.099 8.13603C113.895 8.35203 113.655 8.46003 113.379 8.46003C113.199 8.46003 113.037 8.40603 112.893 8.29803C112.701 8.13003 112.443 7.97403 112.119 7.83003C111.795 7.67403 111.453 7.54803 111.093 7.45203C110.733 7.34403 110.397 7.29003 110.085 7.29003C109.569 7.29003 109.131 7.35603 108.771 7.48803C108.423 7.62003 108.159 7.80003 107.979 8.02803C107.799 8.25603 107.709 8.52003 107.709 8.82003C107.709 9.18003 107.811 9.48003 108.015 9.72003C108.231 9.94803 108.537 10.134 108.933 10.278C109.329 10.41 109.803 10.53 110.355 10.638C111.075 10.77 111.705 10.926 112.245 11.106C112.797 11.286 113.253 11.52 113.613 11.808C113.973 12.084 114.243 12.438 114.423 12.87C114.603 13.29 114.693 13.806 114.693 14.418C114.693 15.198 114.477 15.87 114.045 16.434C113.613 16.998 113.043 17.43 112.335 17.73C111.639 18.03 110.883 18.18 110.067 18.18ZM118.737 16.902C118.737 17.214 118.623 17.478 118.395 17.694C118.167 17.898 117.903 18 117.603 18C117.267 18 116.997 17.898 116.793 17.694C116.589 17.478 116.487 17.214 116.487 16.902V6.49803C116.487 6.18603 116.595 5.92803 116.811 5.72403C117.027 5.50803 117.303 5.40003 117.639 5.40003C117.927 5.40003 118.179 5.50803 118.395 5.72403C118.623 5.92803 118.737 6.18603 118.737 6.49803V16.902ZM125.44 18C125.104 18 124.828 17.898 124.612 17.694C124.396 17.478 124.288 17.214 124.288 16.902V6.46203H126.628V16.902C126.628 17.214 126.514 17.478 126.286 17.694C126.07 17.898 125.788 18 125.44 18ZM121.462 7.47003C121.15 7.47003 120.886 7.37403 120.67 7.18203C120.466 6.99003 120.364 6.73803 120.364 6.42603C120.364 6.11403 120.466 5.86803 120.67 5.68803C120.886 5.49603 121.15 5.40003 121.462 5.40003H129.454C129.766 5.40003 130.024 5.49603 130.228 5.68803C130.444 5.88003 130.552 6.13203 130.552 6.44403C130.552 6.75603 130.444 7.00803 130.228 7.20003C130.024 7.38003 129.766 7.47003 129.454 7.47003H121.462ZM133.27 5.40003H139.3C139.612 5.40003 139.87 5.50203 140.074 5.70603C140.29 5.89803 140.398 6.15003 140.398 6.46203C140.398 6.76203 140.29 7.00803 140.074 7.20003C139.87 7.38003 139.612 7.47003 139.3 7.47003H134.26L134.422 7.16403V10.674L134.278 10.53H138.49C138.802 10.53 139.06 10.632 139.264 10.836C139.48 11.028 139.588 11.28 139.588 11.592C139.588 11.892 139.48 12.138 139.264 12.33C139.06 12.51 138.802 12.6 138.49 12.6H134.332L134.422 12.456V16.092L134.278 15.93H139.3C139.612 15.93 139.87 16.038 140.074 16.254C140.29 16.458 140.398 16.698 140.398 16.974C140.398 17.274 140.29 17.52 140.074 17.712C139.87 17.904 139.612 18 139.3 18H133.27C132.958 18 132.694 17.898 132.478 17.694C132.274 17.478 132.172 17.214 132.172 16.902V6.49803C132.172 6.18603 132.274 5.92803 132.478 5.72403C132.694 5.50803 132.958 5.40003 133.27 5.40003ZM143.661 12.312C143.661 12 143.763 11.742 143.967 11.538C144.171 11.322 144.429 11.214 144.741 11.214C145.233 11.214 145.677 11.142 146.073 10.998C146.469 10.842 146.781 10.596 147.009 10.26C147.249 9.92403 147.369 9.48003 147.369 8.92803C147.369 8.52003 147.267 8.16003 147.063 7.84803C146.871 7.53603 146.601 7.29003 146.253 7.11003C145.917 6.93003 145.533 6.84003 145.101 6.84003C144.765 6.84003 144.447 6.90003 144.147 7.02003C143.859 7.14003 143.595 7.30203 143.355 7.50603C143.163 7.67403 142.929 7.80003 142.653 7.88403C142.389 7.95603 142.119 7.89003 141.843 7.68603C141.555 7.47003 141.399 7.21203 141.375 6.91203C141.351 6.61203 141.465 6.33603 141.717 6.08403C142.149 5.64003 142.653 5.29803 143.229 5.05803C143.817 4.80603 144.441 4.68003 145.101 4.68003C145.929 4.68003 146.673 4.87203 147.333 5.25603C148.005 5.62803 148.539 6.13203 148.935 6.76803C149.331 7.40403 149.529 8.12403 149.529 8.92803C149.529 9.52803 149.439 10.062 149.259 10.53C149.079 10.986 148.821 11.382 148.485 11.718C148.161 12.042 147.777 12.306 147.333 12.51C146.901 12.702 146.427 12.84 145.911 12.924C145.887 12.936 145.863 12.948 145.839 12.96C145.827 12.972 145.821 12.99 145.821 13.014V13.68C145.821 13.992 145.719 14.256 145.515 14.472C145.311 14.676 145.053 14.778 144.741 14.778C144.429 14.778 144.171 14.676 143.967 14.472C143.763 14.256 143.661 13.992 143.661 13.68V12.312ZM144.651 18C144.303 18 144.033 17.91 143.841 17.73C143.661 17.538 143.571 17.268 143.571 16.92V16.614C143.571 16.266 143.661 16.002 143.841 15.822C144.033 15.63 144.303 15.534 144.651 15.534H144.885C145.233 15.534 145.497 15.63 145.677 15.822C145.869 16.002 145.965 16.266 145.965 16.614V16.92C145.965 17.268 145.869 17.538 145.677 17.73C145.497 17.91 145.233 18 144.885 18H144.651Z" fill="#ECE6E1"/>
<path d="M186 11.5C185.172 11.5 184.5 12.1716 184.5 13C184.5 13.8285 185.172 14.5 186 14.5L186 11.5ZM274.061 14.0607C274.646 13.4749 274.646 12.5252 274.061 11.9394L264.515 2.39343C263.929 1.80764 262.979 1.80764 262.393 2.39343C261.808 2.97922 261.808 3.92896 262.393 4.51475L270.879 13L262.393 21.4853C261.808 22.0711 261.808 23.0208 262.393 23.6066C262.979 24.1924 263.929 24.1924 264.515 23.6066L274.061 14.0607ZM186 14.5L273 14.5V11.5L186 11.5L186 14.5Z" fill="white"/>
</svg>
