<svg width="89" height="89" viewBox="0 0 89 89" fill="none" xmlns="http://www.w3.org/2000/svg">
<g filter="url(#filter0_d_1791_433)">
<circle cx="40.1128" cy="40.4643" r="22.1128" fill="#7B5DFA"/>
</g>
<path d="M44.7908 37.4895L35.2653 31.7616M34.9677 31.7616L29.9072 34.6255V46.0814L34.9677 48.9453L40.0281 51.8093L45.0885 48.9453L50.1489 46.0814V34.6255L45.0885 31.7616L40.0281 28.8976L34.9677 31.7616ZM50.1489 34.6255L40.0281 40.3535L50.1489 34.6255ZM29.9072 34.6255L40.0281 40.3535L29.9072 34.6255ZM40.0281 51.8093V40.3535V51.8093ZM44.7908 37.4895V48.9453V37.4895ZM50.1489 40.3535L40.0281 46.0814L50.1489 40.3535ZM40.0281 46.0814L29.9072 40.3535L40.0281 46.0814ZM35.2653 48.9453V37.4895V48.9453ZM44.7908 31.7616L35.2653 37.4895L44.7908 31.7616Z" stroke="black" stroke-linecap="round" stroke-linejoin="round"/>
<defs>
<filter id="filter0_d_1791_433" x="0" y="0.351562" width="88.2256" height="88.2256" filterUnits="userSpaceOnUse" color-interpolation-filters="sRGB">
<feFlood flood-opacity="0" result="BackgroundImageFix"/>
<feColorMatrix in="SourceAlpha" type="matrix" values="0 0 0 0 0 0 0 0 0 0 0 0 0 0 0 0 0 0 127 0" result="hardAlpha"/>
<feMorphology radius="3" operator="erode" in="SourceAlpha" result="effect1_dropShadow_1791_433"/>
<feOffset dx="4" dy="4"/>
<feGaussianBlur stdDeviation="12.5"/>
<feComposite in2="hardAlpha" operator="out"/>
<feColorMatrix type="matrix" values="0 0 0 0 0 0 0 0 0 0 0 0 0 0 0 0 0 0 0.3 0"/>
<feBlend mode="normal" in2="BackgroundImageFix" result="effect1_dropShadow_1791_433"/>
<feBlend mode="normal" in="SourceGraphic" in2="effect1_dropShadow_1791_433" result="shape"/>
</filter>
</defs>
</svg>
