<svg width="127" height="128" viewBox="0 0 127 128" fill="none" xmlns="http://www.w3.org/2000/svg">
<g filter="url(#filter0_d_1791_719)">
<circle cx="59.4311" cy="60.0898" r="41.4311" fill="#9DDCFA"/>
</g>
<path d="M48.6401 40.5459C50.5419 39.1602 52.8635 38.4128 55.2491 38.4183C55.9184 38.4183 56.451 38.7537 56.7606 38.9844C57.1064 39.2474 57.4298 39.5828 57.7199 39.9181C57.9255 40.1584 58.0379 40.46 58.0378 40.7713L58.0378 50.4917L55.0121 50.4917C54.6832 49.5967 54.036 48.8423 53.1849 48.3619C52.3338 47.8816 51.3336 47.7062 50.361 47.8667C49.3885 48.0272 48.5063 48.5134 47.8703 49.2392C47.2343 49.9651 46.8854 50.8839 46.8854 51.8332C46.8854 52.7826 47.2343 53.7014 47.8703 54.4272C48.5063 55.153 49.3885 55.6392 50.361 55.7997C51.3336 55.9602 52.3338 55.7848 53.1849 55.3045C54.036 54.8241 54.6832 54.0698 55.0121 53.1747L58.0378 53.1747L58.0378 78.4349C58.0379 78.6335 57.9922 78.8297 57.9039 79.0093C57.8157 79.1888 57.6871 79.3473 57.5274 79.4732C56.2391 80.4874 54.5157 81.3459 52.4605 81.3459C49.1532 81.3459 46.6908 79.7415 45.0985 77.8232C43.9545 76.4564 43.171 74.8437 42.8146 73.1226C41.7312 72.8447 40.7267 72.3358 39.8754 71.6336C38.3361 70.3645 37.123 68.3067 37.123 65.2481C37.123 63.7537 37.2262 62.4041 37.4577 61.2236L46.1861 61.2236C47.9597 61.2236 49.4209 62.498 49.644 64.1454C48.7166 64.4683 47.9377 65.096 47.4446 65.9178C46.9516 66.7396 46.7763 67.7026 46.9496 68.6367C47.1228 69.5708 47.6336 70.416 48.3916 71.0229C49.1496 71.6299 50.1062 71.9597 51.0924 71.954C52.0786 71.9484 53.0311 71.6076 53.7815 70.992C54.5319 70.3763 55.0322 69.5253 55.1938 68.5893C55.3555 67.6533 55.1682 66.6924 54.665 65.8763C54.1618 65.0603 53.3751 64.4415 52.4438 64.1293C52.3262 62.6099 51.6159 61.1895 50.4553 60.153C49.2947 59.1165 47.7697 58.5405 46.1861 58.5406L38.3528 58.5406C38.7795 57.7411 39.3512 57.065 40.0957 56.5848C40.2841 56.4648 40.4817 56.359 40.6869 56.2682C39.8949 54.0359 40.1013 51.4227 40.8654 49.3702C41.3534 48.0502 42.1286 46.8026 43.1939 45.9709C43.8966 45.4209 44.7332 45.0587 45.6479 44.9889C46.0494 43.1565 47.1788 41.6406 48.6429 40.5459L48.6401 40.5459ZM60.8264 71.9555L62.9179 71.9555C64.5819 71.9555 66.1779 71.3195 67.3545 70.1874C68.5312 69.0553 69.1923 67.5198 69.1923 65.9188L69.1923 60.9956C70.1226 60.6791 70.9067 60.0564 71.4059 59.2376C71.9052 58.4187 72.0875 57.4564 71.9207 56.5207C71.7538 55.585 71.2485 54.7362 70.4941 54.1243C69.7397 53.5124 68.7847 53.1768 67.798 53.1768C66.8112 53.1768 65.8562 53.5124 65.1018 54.1243C64.3474 54.7362 63.8421 55.585 63.6753 56.5207C63.5084 57.4564 63.6907 58.4187 64.19 59.2376C64.6893 60.0564 65.4733 60.6791 66.4036 60.9956L66.4036 65.9188C66.4036 67.7701 64.842 69.2725 62.9179 69.2725L60.8264 69.2725L60.8264 40.7713C60.8263 40.46 60.9387 40.1584 61.1443 39.9181C61.4315 39.5828 61.7578 39.2474 62.1036 38.9844C62.4103 38.7537 62.943 38.4183 63.615 38.4183C66.0006 38.4128 68.3223 39.1602 70.2241 40.5459C71.6881 41.6406 72.8175 43.1565 73.2163 44.9889C74.1309 45.056 74.9675 45.4209 75.6703 45.9709C76.7355 46.8026 77.5108 48.0502 77.9988 49.3702C78.7628 51.4227 78.9692 54.0386 78.1772 56.2655C78.378 56.3567 78.576 56.464 78.7684 56.5874C79.5353 57.0784 80.1181 57.7814 80.5476 58.6104C81.3925 60.2336 81.7411 62.498 81.7411 65.2481C81.7411 68.3093 80.528 70.3645 78.9887 71.6336C78.1375 72.3358 77.1329 72.8447 76.0495 73.1226C75.7706 74.6197 74.9898 76.3529 73.7656 77.8232C72.1761 79.7415 69.711 81.3459 66.4036 81.3459C64.3512 81.3459 62.6251 80.4874 61.3395 79.4732C61.1793 79.3475 61.0502 79.1892 60.9615 79.0096C60.8727 78.83 60.8266 78.6337 60.8264 78.4349L60.8264 71.9555ZM51.0662 50.4917C50.6964 50.4917 50.3417 50.6331 50.0803 50.8846C49.8188 51.1362 49.6719 51.4774 49.6719 51.8332C49.6719 52.189 49.8188 52.5302 50.0803 52.7818C50.3417 53.0334 50.6964 53.1747 51.0662 53.1747C51.436 53.1747 51.7906 53.0334 52.0521 52.7818C52.3136 52.5302 52.4605 52.189 52.4605 51.8332C52.4605 51.4774 52.3136 51.1362 52.0521 50.8846C51.7906 50.6331 51.436 50.4917 51.0662 50.4917ZM51.0662 66.5896C50.6964 66.5896 50.3417 66.7309 50.0803 66.9825C49.8188 67.2341 49.6719 67.5753 49.6719 67.931C49.6719 68.2868 49.8188 68.628 50.0803 68.8796C50.3417 69.1312 50.6964 69.2725 51.0662 69.2725C51.436 69.2725 51.7906 69.1312 52.0521 68.8796C52.3136 68.628 52.4605 68.2868 52.4605 67.931C52.4605 67.5753 52.3136 67.2341 52.0521 66.9825C51.7906 66.7309 51.436 66.5896 51.0662 66.5896ZM67.798 58.5406C68.1678 58.5406 68.5224 58.3993 68.7839 58.1477C69.0454 57.8962 69.1923 57.5549 69.1923 57.1992C69.1923 56.8434 69.0454 56.5022 68.7839 56.2506C68.5224 55.999 68.1678 55.8577 67.798 55.8577C67.4282 55.8577 67.0735 55.999 66.812 56.2506C66.5505 56.5022 66.4036 56.8434 66.4036 57.1992C66.4036 57.5549 66.5505 57.8962 66.812 58.1477C67.0735 58.3993 67.4282 58.5406 67.798 58.5406Z" fill="black"/>
<defs>
<filter id="filter0_d_1791_719" x="0" y="0.658791" width="126.862" height="126.862" filterUnits="userSpaceOnUse" color-interpolation-filters="sRGB">
<feFlood flood-opacity="0" result="BackgroundImageFix"/>
<feColorMatrix in="SourceAlpha" type="matrix" values="0 0 0 0 0 0 0 0 0 0 0 0 0 0 0 0 0 0 127 0" result="hardAlpha"/>
<feMorphology radius="3" operator="erode" in="SourceAlpha" result="effect1_dropShadow_1791_719"/>
<feOffset dx="4" dy="4"/>
<feGaussianBlur stdDeviation="12.5"/>
<feComposite in2="hardAlpha" operator="out"/>
<feColorMatrix type="matrix" values="0 0 0 0 0 0 0 0 0 0 0 0 0 0 0 0 0 0 0.3 0"/>
<feBlend mode="normal" in2="BackgroundImageFix" result="effect1_dropShadow_1791_719"/>
<feBlend mode="normal" in="SourceGraphic" in2="effect1_dropShadow_1791_719" result="shape"/>
</filter>
</defs>
</svg>
