<svg width="127" height="127" viewBox="0 0 127 127" fill="none" xmlns="http://www.w3.org/2000/svg">
<g filter="url(#filter0_d_1791_753)">
<circle cx="59.4311" cy="59.4311" r="41.4311" fill="#F31F46"/>
</g>
<path d="M70.5856 71.4138H67.797V74.1121C67.797 75.6018 67.2523 76.8736 66.163 77.9277C65.0737 78.9817 63.7593 79.5087 62.2197 79.5087H59.4311C57.8915 79.5087 56.5771 78.9817 55.4878 77.9277C54.3985 76.8736 53.8538 75.6018 53.8538 74.1121V71.4138H46.8823C44.1808 71.4138 41.8787 70.4933 39.9761 68.6522C38.0734 66.8112 37.1221 64.5837 37.1221 61.9697C37.1221 60.3676 37.5142 58.8779 38.2985 57.5006C39.0828 56.1234 40.1431 54.9991 41.4793 54.1277C42.4669 56.0671 43.8685 57.7044 45.684 59.0395C47.4995 60.3746 49.5257 61.2529 51.7624 61.6746C49.8452 60.6065 48.3202 59.1449 47.1873 57.2898C46.0544 55.4347 45.488 53.3969 45.488 51.1764C45.488 47.8317 46.7152 44.9717 49.1698 42.5967C51.6244 40.2216 54.58 39.0341 58.0368 39.0341C60.593 39.0341 62.9096 39.7086 64.9866 41.0578C67.0635 42.4069 68.5813 44.1777 69.5399 46.3701C67.5646 46.9884 65.8508 48.0284 64.3983 49.49C62.9459 50.9516 61.9292 52.6521 61.3483 54.5915C62.365 53.1299 63.6867 51.9705 65.3134 51.1132C66.9401 50.2559 68.6975 49.8273 70.5856 49.8273C73.6647 49.8273 76.2936 50.8813 78.4722 52.9894C80.6508 55.0974 81.7401 57.6411 81.7401 60.6205C81.7401 63.5999 80.6508 66.1436 78.4722 68.2517C76.2936 70.3597 73.6647 71.4138 70.5856 71.4138ZM70.3242 67.1133L61.6533 58.3017C61.4209 58.0487 61.1449 57.9222 60.8254 57.9222C60.5059 57.9222 60.2299 58.0487 59.9975 58.3017L51.3266 67.1133C51.0943 67.3663 51.0216 67.6966 51.1088 68.1041C51.1959 68.5117 51.3557 68.7155 51.5881 68.7155H56.6425V74.1121C56.6425 74.871 56.9112 75.5104 57.4486 76.0304C57.9859 76.5504 58.6468 76.8104 59.4311 76.8104H62.2197C63.004 76.8104 63.6649 76.5504 64.2023 76.0304C64.7397 75.5104 65.0084 74.871 65.0084 74.1121V68.7155H70.0627C70.2951 68.7155 70.4549 68.5117 70.542 68.1041C70.6292 67.6966 70.5566 67.3663 70.3242 67.1133Z" fill="black"/>
<defs>
<filter id="filter0_d_1791_753" x="0" y="0" width="126.862" height="126.862" filterUnits="userSpaceOnUse" color-interpolation-filters="sRGB">
<feFlood flood-opacity="0" result="BackgroundImageFix"/>
<feColorMatrix in="SourceAlpha" type="matrix" values="0 0 0 0 0 0 0 0 0 0 0 0 0 0 0 0 0 0 127 0" result="hardAlpha"/>
<feMorphology radius="3" operator="erode" in="SourceAlpha" result="effect1_dropShadow_1791_753"/>
<feOffset dx="4" dy="4"/>
<feGaussianBlur stdDeviation="12.5"/>
<feComposite in2="hardAlpha" operator="out"/>
<feColorMatrix type="matrix" values="0 0 0 0 0 0 0 0 0 0 0 0 0 0 0 0 0 0 0.3 0"/>
<feBlend mode="normal" in2="BackgroundImageFix" result="effect1_dropShadow_1791_753"/>
<feBlend mode="normal" in="SourceGraphic" in2="effect1_dropShadow_1791_753" result="shape"/>
</filter>
</defs>
</svg>
