<svg width="127" height="128" viewBox="0 0 127 128" fill="none" xmlns="http://www.w3.org/2000/svg">
<g filter="url(#filter0_d_1791_741)">
<circle cx="59.4311" cy="59.6715" r="41.4311" fill="#F3CC1F"/>
</g>
<path d="M63.9597 60.0117C63.5239 60.4309 62.8177 60.4309 62.382 60.0117L61.5935 59.2531C61.1578 58.8339 61.1578 58.1544 61.5935 57.7352L64.0838 55.34L61.5942 52.9441C61.1585 52.5249 61.1585 51.8454 61.5942 51.4262L62.3827 50.6676C62.8184 50.2484 63.5246 50.2484 63.9604 50.6676L68.0276 54.5807C68.4633 54.9999 68.4633 55.6794 68.0276 56.0986L63.9597 60.0117ZM57.2663 59.2538L56.4778 60.0124C56.042 60.4316 55.3358 60.4316 54.9001 60.0124L50.8329 56.0993C50.3972 55.6801 50.3972 55.0006 50.8329 54.5814L54.9001 50.6683C55.3358 50.2491 56.042 50.2491 56.4778 50.6683L57.2663 51.4269C57.702 51.8461 57.702 52.5256 57.2663 52.9448L54.7767 55.34L57.2663 57.7359C57.702 58.1551 57.702 58.8346 57.2663 59.2538ZM38.2367 70.3646H55.1399C55.1915 71.6934 56.1654 72.511 57.4224 72.511H61.6611C62.9641 72.511 63.9631 71.3392 63.9457 70.3646H80.6238C81.2373 70.3646 81.7393 70.8476 81.7393 71.4378V72.511C81.7393 74.872 79.7314 76.8037 77.2775 76.8037H41.583C39.129 76.8037 37.1212 74.872 37.1212 72.511V71.4378C37.1212 70.8476 37.6232 70.3646 38.2367 70.3646ZM41.583 45.6813C41.583 43.9106 43.0889 42.4618 44.9294 42.4618H73.9311C75.7716 42.4618 77.2775 43.9106 77.2775 45.6813V68.2183H41.583V45.6813ZM46.0448 63.9255H72.8156V46.7545H46.0448V63.9255Z" fill="black"/>
<defs>
<filter id="filter0_d_1791_741" x="0" y="0.240448" width="126.862" height="126.862" filterUnits="userSpaceOnUse" color-interpolation-filters="sRGB">
<feFlood flood-opacity="0" result="BackgroundImageFix"/>
<feColorMatrix in="SourceAlpha" type="matrix" values="0 0 0 0 0 0 0 0 0 0 0 0 0 0 0 0 0 0 127 0" result="hardAlpha"/>
<feMorphology radius="3" operator="erode" in="SourceAlpha" result="effect1_dropShadow_1791_741"/>
<feOffset dx="4" dy="4"/>
<feGaussianBlur stdDeviation="12.5"/>
<feComposite in2="hardAlpha" operator="out"/>
<feColorMatrix type="matrix" values="0 0 0 0 0 0 0 0 0 0 0 0 0 0 0 0 0 0 0.3 0"/>
<feBlend mode="normal" in2="BackgroundImageFix" result="effect1_dropShadow_1791_741"/>
<feBlend mode="normal" in="SourceGraphic" in2="effect1_dropShadow_1791_741" result="shape"/>
</filter>
</defs>
</svg>
