<svg width="127" height="127" viewBox="0 0 127 127" fill="none" xmlns="http://www.w3.org/2000/svg">
<g filter="url(#filter0_d_1791_727)">
<circle cx="59.4311" cy="59.4311" r="41.4311" fill="#1FB0F3"/>
</g>
<path d="M81.3422 78.463L74.7905 72.168V47.9507L71.6964 42.4492C71.4681 42.0297 71.1256 41.6785 70.706 41.4336C70.2863 41.1886 69.8054 41.0591 69.3152 41.0591C68.8249 41.0591 68.344 41.1886 67.9243 41.4336C67.5047 41.6785 67.1622 42.0297 66.934 42.4492L64.0281 47.9637V61.8152L39.4226 38.1442C39.2344 37.9607 38.994 37.8357 38.732 37.7848C38.47 37.734 38.1983 37.7598 37.9515 37.8589C37.7047 37.9579 37.494 38.1258 37.3463 38.3411C37.1986 38.5563 37.1205 38.8093 37.1221 39.0676V49.5765H40.0414V51.6575H37.1221V59.9814H40.0414V62.0623H37.1221V70.7114H40.0414V72.7923H37.1221V79.3864C37.1221 79.7313 37.2638 80.0622 37.5161 80.3061C37.7684 80.55 38.1106 80.687 38.4674 80.687H80.387C80.6542 80.6885 80.9158 80.6131 81.1385 80.4702C81.3612 80.3274 81.5348 80.1238 81.6373 79.8852C81.7397 79.6466 81.7664 79.3839 81.7138 79.1306C81.6613 78.8773 81.5319 78.6449 81.3422 78.463ZM47.8845 70.3862V58.6027L60.0864 70.3862H47.8845ZM72.0999 73.1305H66.7187V69.97H72.0999V73.1305ZM72.0999 67.9281H66.7187V48.601L69.3286 43.6978L72.0999 48.6141V67.9281Z" fill="black"/>
<defs>
<filter id="filter0_d_1791_727" x="0" y="1.52588e-05" width="126.862" height="126.862" filterUnits="userSpaceOnUse" color-interpolation-filters="sRGB">
<feFlood flood-opacity="0" result="BackgroundImageFix"/>
<feColorMatrix in="SourceAlpha" type="matrix" values="0 0 0 0 0 0 0 0 0 0 0 0 0 0 0 0 0 0 127 0" result="hardAlpha"/>
<feMorphology radius="3" operator="erode" in="SourceAlpha" result="effect1_dropShadow_1791_727"/>
<feOffset dx="4" dy="4"/>
<feGaussianBlur stdDeviation="12.5"/>
<feComposite in2="hardAlpha" operator="out"/>
<feColorMatrix type="matrix" values="0 0 0 0 0 0 0 0 0 0 0 0 0 0 0 0 0 0 0.3 0"/>
<feBlend mode="normal" in2="BackgroundImageFix" result="effect1_dropShadow_1791_727"/>
<feBlend mode="normal" in="SourceGraphic" in2="effect1_dropShadow_1791_727" result="shape"/>
</filter>
</defs>
</svg>
