<svg width="21" height="21" viewBox="0 0 21 21" fill="none" xmlns="http://www.w3.org/2000/svg">
<path d="M15.8584 7.58185C15.481 7.74565 15.0759 7.85826 14.6503 7.9074C15.0851 7.65147 15.4174 7.24607 15.5754 6.76389C15.161 7.00494 14.7089 7.17453 14.238 7.26552C14.0399 7.05829 13.8016 6.8935 13.5377 6.78121C13.2737 6.66892 12.9896 6.61147 12.7027 6.61238C11.5407 6.61238 10.5992 7.53886 10.5992 8.68032C10.5992 8.84207 10.6177 8.99972 10.6536 9.15123C9.82009 9.11173 9.00402 8.89924 8.25742 8.52732C7.51083 8.1554 6.85009 7.63222 6.31737 6.99116C6.13027 7.30555 6.03176 7.66457 6.03226 8.03025C6.03226 8.74686 6.40455 9.38157 6.96862 9.75114C6.63474 9.74069 6.308 9.65197 6.01483 9.49214L6.01483 9.51773C6.01799 9.99833 6.18794 10.463 6.49574 10.8326C6.80354 11.2022 7.23015 11.4538 7.70294 11.5447C7.39256 11.6266 7.06779 11.6385 6.75222 11.5795C6.88978 11.993 7.15289 12.3534 7.50503 12.6108C7.85716 12.8682 8.28084 13.0098 8.71725 13.0158C7.96853 13.5917 7.04927 13.9029 6.10405 13.9003C5.93483 13.9003 5.76766 13.8901 5.60254 13.8717C6.56708 14.4811 7.68547 14.8039 8.82699 14.8022C12.6976 14.8022 14.8133 11.6512 14.8133 8.91782L14.8062 8.64961C15.2188 8.36018 15.5753 7.99839 15.8584 7.58185Z" fill="white"/>
<path d="M4.57696 2.51695C4.03295 2.51695 3.51123 2.73266 3.12656 3.11664C2.74189 3.50061 2.52578 4.02139 2.52578 4.56442L2.52578 16.8492C2.52578 17.3922 2.74189 17.913 3.12656 18.297C3.51123 18.681 4.03295 18.8967 4.57696 18.8967L16.884 18.8967C17.428 18.8967 17.9497 18.681 18.3344 18.297C18.7191 17.913 18.9352 17.3922 18.9352 16.8492L18.9352 4.56442C18.9352 4.02139 18.7191 3.50061 18.3344 3.11664C17.9497 2.73266 17.428 2.51695 16.884 2.51695L4.57696 2.51695ZM4.57696 0.469482L16.884 0.469482C17.972 0.469482 19.0155 0.900912 19.7848 1.66886C20.5542 2.43681 20.9864 3.47837 20.9864 4.56442L20.9864 16.8492C20.9864 17.9353 20.5542 18.9768 19.7848 19.7448C19.0155 20.5127 17.972 20.9441 16.884 20.9441L4.57696 20.9441C3.48895 20.9441 2.4455 20.5127 1.67616 19.7448C0.90682 18.9768 0.474609 17.9353 0.474609 16.8492L0.474609 4.56442C0.474609 3.47837 0.90682 2.43681 1.67616 1.66886C2.4455 0.900912 3.48895 0.469482 4.57696 0.469482Z" fill="white"/>
</svg>
